<svg xmlns="http://www.w3.org/2000/svg" xmlns:xlink="http://www.w3.org/1999/xlink" viewBox="0 0 2579.24 1464.41" class="mob_app"><defs><style> 
	#mob_app .lines g, #mob_app .lines path {
    opacity: 0;
}
#mob_app .lines g:nth-child(1), #mob_app .lines path:nth-child(1) {
    animation: show 1s ease-out forwards 0.9545454545s infinite alternate;
}
#mob_app .lines g:nth-child(2), #mob_app .lines path:nth-child(2) {
    animation: show 1s ease-out forwards 1.4090909091s infinite alternate;
}
#mob_app .lines g:nth-child(3), #mob_app .lines path:nth-child(3) {
    animation: show 1s ease-out forwards 1.8636363636s infinite alternate;
}
#mob_app .lines g:nth-child(4), #mob_app .lines path:nth-child(4) {
    animation: show 1s ease-out forwards 2.3181818182s infinite alternate;
}
#mob_app .lines g:nth-child(5), #mob_app .lines path:nth-child(5) {
    animation: show 1s ease-out forwards 2.7727272727s infinite alternate;
}
#mob_app .lines g:nth-child(6), #mob_app .lines path:nth-child(6) {
    animation: show 1s ease-out forwards 3.2272727273s infinite alternate;
}
#mob_app .lines g:nth-child(7), #mob_app .lines path:nth-child(7) {
    animation: show 1s ease-out forwards 3.6818181818s infinite alternate;
}
#mob_app .lines g:nth-child(8), #mob_app .lines path:nth-child(8) {
    animation: show 1s ease-out forwards 4.1363636364s infinite alternate;
}
#mob_app .lines g:nth-child(9), #mob_app .lines path:nth-child(9) {
    animation: show 1s ease-out forwards 4.5909090909s infinite alternate;
}
#mob_app .lines g:nth-child(10), #mob_app .lines path:nth-child(10) {
    animation: show 1s ease-out forwards 5.0454545455s infinite alternate;
}
#mob_app .lines g:nth-child(11), #mob_app .lines path:nth-child(11) {
    animation: show 1s ease-out forwards 5.5s infinite alternate;
}
#mob_app .lines g:nth-child(12), #mob_app .lines path:nth-child(12) {
    animation: show 1s ease-out forwards 5.9545454545s infinite alternate;
}
#mob_app .lines g:nth-child(13), #mob_app .lines path:nth-child(13) {
    animation: show 1s ease-out forwards 6.4090909091s infinite alternate;
}

@keyframes show{
	100%{
	opacity: 1;
	}
}

	.cls-1{fill:none;}.cls-13,.cls-18,.cls-19,.cls-2,.cls-21,.cls-23,.cls-25,.cls-26,.cls-27,.cls-28,.cls-29,.cls-3,.cls-30,.cls-4,.cls-5,.cls-7,.cls-8,.cls-9{fill-rule:evenodd;}.cls-2{opacity:0.08;fill:url(#radial-gradient);}.cls-4{fill:#212121;}.cls-5{fill:#111;}.cls-31,.cls-6{opacity:0.4;}.cls-7{fill:url(#linear-gradient);}.cls-8{fill:url(#linear-gradient-2);}.cls-9{fill:url(#linear-gradient-3);}.cls-10{clip-path:url(#clip-path);}.cls-11{clip-path:url(#clip-path-2);}.cls-12,.cls-27{fill:#4d89f8;}.cls-13{fill:url(#linear-gradient-4);}.cls-14{clip-path:url(#clip-path-4);}.cls-15{clip-path:url(#clip-path-5);}.cls-16{fill:#1936d2;}.cls-17{fill:#fff;}.cls-18{fill:url(#linear-gradient-5);}.cls-19{fill:url(#linear-gradient-6);}.cls-20{opacity:0.5;}.cls-21{fill:url(#radial-gradient-2);}.cls-22{opacity:0.2;}.cls-23{fill:url(#linear-gradient-7);}.cls-24{opacity:0.15;}.cls-25{fill:url(#radial-gradient-6);}.cls-26{fill:url(#linear-gradient-8);}.cls-28{fill:url(#radial-gradient-7);}.cls-29{opacity:0.25;fill:url(#radial-gradient-8);}.cls-30{fill:url(#radial-gradient-9);}.cls-31{fill:url(#linear-gradient-9);}</style><radialGradient id="radial-gradient" cx="329.49" cy="1269.36" r="1" gradientTransform="matrix(5080.41, 0, 0, -5090.43, -1674049.37, 6460333.65)" gradientUnits="userSpaceOnUse"><stop offset="0" stop-color="#787878"></stop><stop offset="0.6" stop-color="#656565"></stop><stop offset="1" stop-color="#656565"></stop></radialGradient><linearGradient id="linear-gradient" x1="327" y1="1273.79" x2="328" y2="1273.79" gradientTransform="matrix(208.02, 0, 0, -208.02, -65650.48, 265931.92)" gradientUnits="userSpaceOnUse"><stop offset="0" stop-color="#2054e1"></stop><stop offset="0.47" stop-color="#2054e1"></stop><stop offset="0.8" stop-color="#4d89f8"></stop><stop offset="1" stop-color="#4d89f8"></stop></linearGradient><linearGradient id="linear-gradient-2" x1="328.05" y1="1271.92" x2="329.05" y2="1271.92" gradientTransform="matrix(349.42, 0, 0, -349.42, -112678.83, 445553.74)" xlink:href="#linear-gradient"></linearGradient><linearGradient id="linear-gradient-3" x1="328.05" y1="1271.92" x2="329.05" y2="1271.92" gradientTransform="matrix(349.43, 0, 0, -349.43, -114628.58, 445348.56)" xlink:href="#linear-gradient"></linearGradient><clipPath id="clip-path"><path id="SVGID" class="cls-1" d="M1331.24,1019.72c-17.67,0-34.53-3.55-47.17-10.79l-166.4-96.29c13.26-8.75,20.76-19.18,22.28-29.39l.4.15V866.27a19,19,0,0,0,6,.91,22,22,0,0,0,10.72-2.68c5.6-3.24,6.21-8.13,1.36-10.93l-18.1-10.45V796.48c10.39,1.67,20,4.76,27.86,9.29l233.11,134.91c28.16,16.12,24.73,44.47-7.65,63.32C1375.83,1014.38,1352.93,1019.72,1331.24,1019.72Z"></path></clipPath><clipPath id="clip-path-2"><path id="SVGID-2" data-name="SVGID" class="cls-1" d="M1140.36,883.41l-.41-.15a26.17,26.17,0,0,0-5.36-20l3.56,2a12.33,12.33,0,0,0,2.21,1Zm0-40.29-14.59-8.42a16.79,16.79,0,0,0-8.23-1.89,22,22,0,0,0-10.71,2.67c-2.77,1.6-4.31,3.59-4.6,5.53l-48-27.59c1.4-.92,2.86-1.83,4.38-2.71C1076.44,800.32,1099.35,795,1121,795a120.81,120.81,0,0,1,19.33,1.5Z"></path></clipPath><linearGradient id="linear-gradient-4" x1="330.62" y1="1269.53" x2="331.62" y2="1269.53" gradientTransform="matrix(0, -936.99, -936.99, 0, 1190661.76, 310714.56)" gradientUnits="userSpaceOnUse"><stop offset="0" stop-color="#4d89f8"></stop><stop offset="1" stop-color="#4d89f8"></stop></linearGradient><clipPath id="clip-path-4"><path id="SVGID-4" data-name="SVGID" class="cls-1" d="M1518.76,911.46c-17.67,0-34.54-3.55-47.18-10.79L1140.37,707.51V631c16.43-7.68,36-11.62,54.57-11.62,17.67,0,34.53,3.55,47.18,10.79l346.72,202.2c28.16,16.13,24.73,44.48-7.64,63.33C1563.35,906.12,1540.44,911.46,1518.76,911.46Z"></path></clipPath><clipPath id="clip-path-5"><path id="SVGID-5" data-name="SVGID" class="cls-1" d="M1140.36,707.51l-15.5-9c-28.16-16.13-24.74-44.48,7.64-63.33,2.53-1.47,5.15-2.83,7.86-4.1Z"></path></clipPath><linearGradient id="linear-gradient-5" x1="327.44" y1="1273.26" x2="328.44" y2="1273.26" gradientTransform="matrix(-130.73, 224.57, -224.57, -130.73, 330138.83, 93566.4)" gradientUnits="userSpaceOnUse"><stop offset="0" stop-color="#1936d2"></stop><stop offset="1" stop-color="#fff"></stop></linearGradient><linearGradient id="linear-gradient-6" x1="328.18" y1="1272.01" x2="329.18" y2="1272.01" gradientTransform="matrix(-198.91, 341.69, -341.69, -198.91, 500776, 141763.24)" gradientUnits="userSpaceOnUse"><stop offset="0" stop-color="#88cd8a"></stop><stop offset="1" stop-color="#fff"></stop></linearGradient><radialGradient id="radial-gradient-2" cx="329.49" cy="1269.36" r="1" gradientTransform="matrix(5080.41, 0, 0, -5090.43, -1674049.38, 6460333.65)" gradientUnits="userSpaceOnUse"><stop offset="0" stop-color="#fff"></stop><stop offset="0.4" stop-color="#fff"></stop><stop offset="1" stop-color="#1936d2"></stop></radialGradient><linearGradient id="linear-gradient-7" x1="328.99" y1="1270.24" x2="328.99" y2="1269.23" gradientTransform="matrix(909, 0, 0, -909, -298139.91, 1154646.17)" gradientUnits="userSpaceOnUse"><stop offset="0" stop-color="#7b7b7b" stop-opacity="0"></stop><stop offset="1" stop-opacity="0.5"></stop></linearGradient><radialGradient id="radial-gradient-6" cx="329.22" cy="1269.83" r="1" gradientTransform="matrix(1471.99, 0, 0, -1471.98, -483744.72, 1869411.51)" gradientUnits="userSpaceOnUse"><stop offset="0" stop-color="#707070"></stop><stop offset="1" stop-color="#6b6b6b"></stop></radialGradient><linearGradient id="linear-gradient-8" x1="328.39" y1="1272.88" x2="329.39" y2="1272.88" gradientTransform="matrix(448.64, 0, 0, -259.2, -146638.52, 330736.2)" xlink:href="#linear-gradient"></linearGradient><radialGradient id="radial-gradient-7" cx="329.29" cy="1269.72" r="1" gradientTransform="matrix(1775.11, 0, 0, -1775.1, -584057.34, 2254567.83)" gradientUnits="userSpaceOnUse"><stop offset="0" stop-color="#88cd8a"></stop><stop offset="0.1" stop-color="#fff"></stop><stop offset="0.2" stop-color="#fff"></stop><stop offset="0.4" stop-color="#7e7e7e"></stop><stop offset="0.5" stop-color="#606060"></stop><stop offset="0.6" stop-color="#757575"></stop><stop offset="1" stop-color="#757575"></stop></radialGradient><radialGradient id="radial-gradient-8" cx="1889.54" cy="425.68" r="73.71" gradientUnits="userSpaceOnUse"><stop offset="0" stop-color="#6b6b6b"></stop><stop offset="1" stop-color="#7b7b7b"></stop></radialGradient><radialGradient id="radial-gradient-9" cx="329.22" cy="1269.83" r="1" gradientTransform="matrix(1471.99, 0, 0, -1471.98, -483759.56, 1869400.4)" gradientUnits="userSpaceOnUse"><stop offset="0" stop-color="#6a6a6a"></stop><stop offset="1" stop-color="#686868"></stop></radialGradient><linearGradient id="linear-gradient-9" x1="337.55" y1="398.39" x2="827.31" y2="398.39" gradientTransform="matrix(1, 0, 0, 1, 0, 0)" xlink:href="#linear-gradient"></linearGradient></defs><g id="Layer_2" data-name="Layer 2"><g id="mob_app" data-name="mob app"><path class="cls-2" d="M1036.62,1464.41c-16.39,0-32-3.31-43.73-10.06L462,1147.52c-25.8-14.9-22.57-40.92,7.23-58.12L1609.14,461.45a82.14,82.14,0,0,1,76.45-1.51L2237,736.06c25.81,14.9,22.57,40.93-7.22,58.13l-1136.22,656C1077.27,1459.59,1056.4,1464.41,1036.62,1464.41Z"></path><path class="cls-3" d="M1034.45,1326.42c-16.27,0-31.81-3.28-43.42-10L533.74,1052.14l-61.12-35.33c-9.95-5.73-15.5-13.16-16.9-21.08l-.05,0-10.5-52.45c1.75,7.51,7.31,14.5,16.81,20l530.91,306.83c11.69,6.75,27.33,10.06,43.73,10.06,19.62,0,40.3-4.74,56.54-14l.15-.08.25-.15L2229.78,610l.14-.09.06,0,.09-.05.14-.09h0c13.49-7.9,21.42-17.62,23.58-27.26l-10.65,50.72-.06-.09c-2,9.86-10,19.83-23.92,27.87l-56.13,32.4L1091,1312.29C1074.82,1321.63,1054.1,1326.42,1034.45,1326.42Z"></path><path class="cls-4" d="M1036.62,1280.18c-16.4,0-32-3.31-43.73-10.06L462,963.29c-9.5-5.48-15.06-12.47-16.81-20-3-12.88,5.21-27.27,24-38.15l671.16-387.48v15.64L511.53,896.45c-15.92,9.19-24.08,21-24.08,32.12,0,9.25,5.59,18.08,17,24.67l489.12,282.62c11.42,6.6,26.7,9.82,42.72,9.82,19.32,0,39.72-4.71,55.64-13.9L2190.14,602.15c15.92-9.19,24.08-21,24.08-32.12,0-9.25-5.6-18.07-17-24.67l-493-284.89c-11.42-6.59-26.7-9.83-42.71-9.83-19.34,0-39.73,4.71-55.65,13.91L1140.37,533.31V517.67l465.05-268.5c16.3-9.4,37.17-14.22,56.95-14.22,16.39,0,32,3.3,43.73,10.05L2237,551.83c13.88,8,19.36,19.25,16.82,30.6-2.16,9.64-10.09,19.36-23.58,27.26,19.3-11.31,27-26.31,22.86-39.5-2.66,9.24-10.29,18.45-23.32,26l-1136.22,656c-16.3,9.41-37.16,14.23-57,14.23-16.39,0-32-3.3-43.71-10.05L462,949.5c-8.79-5.07-14-11.48-16.1-18.36-3.41,11.87,1.59,23.77,16.1,32.15L992.9,1270.12C1004.58,1276.87,1020.23,1280.18,1036.62,1280.18Zm56.54-14,.15-.08ZM2229.92,609.87l.06,0Zm.15-.08.14-.09Z"></path><path class="cls-5" d="M1036.31,1245.68c-16,0-31.3-3.22-42.72-9.82L504.47,953.24c-11.43-6.59-17-15.42-17-24.67,0-11.16,8.16-22.93,24.08-32.12l225-129.93,403.84-233.21,55.08-31.8,410.34-237c15.92-9.2,36.31-13.91,55.65-13.91,16,0,31.29,3.24,42.71,9.83l493,284.89c11.42,6.6,17,15.42,17,24.67,0,11.16-8.16,22.93-24.08,32.12L1092,1231.78C1076,1241,1055.63,1245.68,1036.31,1245.68Z"></path><path class="cls-3" d="M1902.38,375l-19.05,11c-14.75,8.52-16.36,21.4-3.58,28.78l9,5.18c5.8,3.35,13.55,5,21.66,5,9.8,0,20.13-2.38,28.2-7l19-11Z"></path><path d="M2229.78,596.17l-1136.22,656c-29.79,17.2-74.86,19.07-100.66,4.18L462,949.5c-8.79-5.07-14-11.48-16.1-18.36-3.41,11.87,1.59,23.77,16.1,32.15L992.9,1270.12c25.8,14.9,70.87,13,100.66-4.17l686.77-396.5L2229.78,610c19.64-11.34,27.48-26.48,23.32-39.77C2250.44,579.43,2242.81,588.64,2229.78,596.17Z"></path><g class="cls-6"><path class="cls-7 float_down" d="M2475.23,909.39a32.61,32.61,0,0,0-16.27,4.35L2384.08,957a2,2,0,0,0,0,3.45l74.87,43.23h0a32.65,32.65,0,0,0,32.54,0l74.88-43.23a2,2,0,0,0,0-3.45l-74.87-43.23A32.61,32.61,0,0,0,2475.23,909.39Zm0,110.48a44.48,44.48,0,0,1-22.22-5.94l-74.86-43.23a13.86,13.86,0,0,1,0-24L2453,903.47a44.47,44.47,0,0,1,44.41,0l74.87,43.22a13.87,13.87,0,0,1,0,24l-74.87,43.22A44.46,44.46,0,0,1,2475.24,1019.87Z"></path></g><g class="cls-6"><path class="cls-8 float_down" d="M2092.23,1198.76a60.51,60.51,0,0,0,60.28,0l128.84-74.4a7.7,7.7,0,0,0,0-13.35l-128.84-74.39a60.46,60.46,0,0,0-60.28,0L1963.38,1111a7.71,7.71,0,0,0,0,13.35Zm30.14,19.92a72.16,72.16,0,0,1-36.07-9.64l-128.85-74.39a19.58,19.58,0,0,1,0-33.92l128.84-74.39a72.39,72.39,0,0,1,72.15,0l128.85,74.39a19.59,19.59,0,0,1,0,33.92L2158.44,1209A72.18,72.18,0,0,1,2122.37,1218.68Z"></path></g><g class="cls-6"><path class="cls-9 float_down" d="M174.71,815.31a60.35,60.35,0,0,0-30.14,8L15.73,897.74a7.71,7.71,0,0,0,0,13.36l128.85,74.39a60.46,60.46,0,0,0,60.28,0L333.7,911.1a7.72,7.72,0,0,0,0-13.36L204.85,823.35A60.29,60.29,0,0,0,174.71,815.31Zm0,190.09a72.09,72.09,0,0,1-36.08-9.64L9.79,921.38a19.58,19.58,0,0,1,0-33.91l128.84-74.39a72.36,72.36,0,0,1,72.16,0l128.84,74.39a19.57,19.57,0,0,1,0,33.91L210.79,995.76A72.05,72.05,0,0,1,174.72,1005.4Z"></path></g><g class="cls-10"><path class="cls-3" d="M1420.39,1019.72H1117.67V883.4L1052,786.61l88.31,9.87h280Z"></path></g><path class="cls-3" d="M1114.71,911c-13.77-8-71-40.53-71-40.53s-26.74-22.07,7.17-54.29,79.13,41.29,89.88,54.29,24.3,15.26,0,32.22C1122.35,915.54,1127.22,918.28,1114.71,911Z"></path><g class="cls-11"><path class="cls-3" d="M1140.36,796.49h-22.69v86.92h-63.45V795h86.14Z"></path></g><g class="cls-11"><rect x="1117.67" y="796.49" width="22.68" height="86.92"></rect></g><path class="cls-12" d="M1259.73,935.48l-87.29-50.4c-4.86-2.8-4.25-7.7,1.36-10.93s14.08-3.59,18.94-.79l87.29,50.4c4.86,2.81,4.24,7.7-1.36,10.94S1264.59,938.29,1259.73,935.48Z"></path><path class="cls-12" d="M1326,973.7l-31.72-18.3c-4.86-2.8-4.25-7.7,1.35-10.94s14.09-3.58,18.94-.78L1346.25,962c4.84,2.8,4.24,7.7-1.37,10.93S1330.8,976.51,1326,973.7Z"></path><path class="cls-13" d="M1140.36,866.27a12.65,12.65,0,0,1-2.21-1l-3.56-2.06a43.85,43.85,0,0,0-13.41-11.34L1102.24,841c.28-2,1.83-3.94,4.59-5.53a22,22,0,0,1,10.71-2.67,16.77,16.77,0,0,1,8.23,1.89l14.59,8.42Z"></path><path class="cls-12" d="M1138.15,865.29l-32.68-18.87c-4.87-2.8-4.25-7.7,1.36-10.94s14.09-3.59,18.94-.78l32.68,18.87c4.85,2.8,4.25,7.69-1.36,10.93S1143,868.1,1138.15,865.29Z"></path><g class="cls-14"><path class="cls-3" d="M1607.91,911.46H1140.37v-292h467.54Z"></path></g><path class="cls-12" d="M1274.29,726c-5.17-3-13.55-3-18.73,0l-9.22,5.36c-5.17,3-5.17,7.84,0,10.82s13.56,3,18.73,0l9.22-5.36C1279.46,733.81,1279.46,729,1274.29,726Z"></path><path class="cls-12" d="M1361.86,721.81c-5.17-3-13.55-3-18.73,0l-56.66,32.71c-5.16,3-5.16,7.83,0,10.81s13.57,3,18.73,0l56.66-32.71C1367,729.64,1367,724.8,1361.86,721.81Z"></path><path class="cls-12" d="M1536.48,852.71c-5.16-3-13.55-3-18.72,0l-30.6,17.68c-5.17,3-5.17,7.82,0,10.81s13.56,3,18.73,0l30.59-17.67C1541.66,860.54,1541.66,855.7,1536.48,852.71Z"></path><path class="cls-12" d="M1492.53,831.75c-5.17-3-13.56-3-18.73,0L1447,847.21c-5.17,3-5.17,7.83,0,10.81s13.56,3,18.74,0l26.77-15.45C1497.7,839.58,1497.7,834.73,1492.53,831.75Z"></path><path class="cls-12" d="M1482.27,791.32c-5.17-3-13.55-3-18.73,0L1406.88,824c-5.16,3-5.16,7.83,0,10.81s13.57,3,18.74,0l56.65-32.71C1487.44,799.15,1487.44,794.31,1482.27,791.32Z"></path><path class="cls-12" d="M1430.14,775.09c-5.18-3-13.57-3-18.74,0l-44.65,25.78c-5.17,3-5.17,7.82,0,10.81s13.56,3,18.73,0l44.66-25.78C1435.3,782.91,1435.3,778.07,1430.14,775.09Z"></path><path class="cls-12" d="M1372.12,762.23c-5.17-3-13.56-3-18.73,0l-26.78,15.46c-5.17,3-5.17,7.83,0,10.82s13.56,3,18.73,0L1372.12,773C1377.29,770.06,1377.29,765.22,1372.12,762.23Z"></path><g class="cls-15"><rect x="1105.79" y="631.04" width="34.57" height="76.47"></rect></g><path class="cls-16" d="M1235,695c-21.65,12.5-56.74,12.5-78.39,0s-21.64-32.76,0-45.25,56.74-12.5,78.39,0S1256.63,682.49,1235,695Z"></path><path class="cls-17" d="M1172,670.83l21.18-12.23c3.67-2.11,9.94-1.21,11.45,1.66l9.21,17.55c1.6,3-3.32,5.86-8.58,5l-30.39-5.32C1169.87,676.57,1168.3,673,1172,670.83Z"></path><path class="cls-18" d="M1284,579.62l157.91,91c28.16,16.12,77.23,13.9,109.61-4.95s35.8-47.2,7.64-63.32l-157.9-91c-28.16-16.13-77.23-13.91-109.61,4.94S1255.8,563.49,1284,579.62Z"></path><path class="cls-12" d="M1352.6,561.65l-26.06-15c-4.85-2.8-4.24-7.7,1.37-10.93s14.07-3.58,18.93-.78l26.06,15c4.85,2.8,4.24,7.7-1.36,10.94S1357.45,564.45,1352.6,561.65Z"></path><path class="cls-12" d="M1454,620.17l-68.68-39.66c-4.86-2.8-4.25-7.7,1.35-10.94s14.09-3.59,18.94-.78l68.69,39.66c4.86,2.8,4.25,7.7-1.36,10.93S1458.81,623,1454,620.17Z"></path><path class="cls-19" d="M1051.1,930.93c-17.3,0-33.82-3.4-46.36-10.32,12.54,6.92,29.06,10.32,46.36,10.32,21.68,0,44.59-5.34,62.43-15.73,15.86-9.22,24.72-20.73,26.38-32h0c-1.52,10.2-9,20.63-22.29,29.38q-2,1.3-4.14,2.57C1095.69,925.59,1072.79,930.93,1051.1,930.93Zm-46.61-10.46-.57-.32Zm-.57-.32L736.51,766.52l-13.62-7.83L710.2,751.4c-13.1-7.5-19.37-17.65-19.06-28.26l.09,0c-.29,10.59,5.88,20.73,19,28.23Z"></path><g class="cls-15"><path class="cls-3" d="M1140.36,707.51v0Z"></path></g><g class="cls-20 lines"><path class="cls-17" d="M1194.15,154.19l26.42,15.25c4.94,2.85,13,2.85,17.9,0s4.94-7.48,0-10.34l-26.42-15.25c-5-2.85-13-2.86-17.9,0S1189.21,151.33,1194.15,154.19Z"></path><path class="cls-21" d="M1240.18,221a18.26,18.26,0,0,1-9-2.14l-74.59-43.07c-4.93-2.85-4.94-7.48,0-10.33a19.79,19.79,0,0,1,17.9,0l74.59,43.06c4.93,2.86,4.94,7.48,0,10.34A18.26,18.26,0,0,1,1240.18,221Z"></path><path class="cls-21" d="M1336.73,233.48a18.26,18.26,0,0,1-9-2.14l-74.58-43.06c-4.94-2.86-4.94-7.48,0-10.33a19.7,19.7,0,0,1,17.9,0L1345.68,221c4.94,2.86,4.94,7.49,0,10.34A18.26,18.26,0,0,1,1336.73,233.48Z"></path><path class="cls-12" d="M1404.06,254.71l-4.38-2.53L1378.49,240c-4.94-2.85-13-2.85-17.89,0s-4.95,7.48,0,10.33l21.18,12.24,4.38,2.53,21.19,12.23c5,2.86,13,2.86,17.91,0s4.93-7.48,0-10.34Z"></path><path class="cls-12" d="M1550.77,1228.29l107.71,62.19c6.22,3.59,16.3,3.59,22.51,0s6.22-9.41,0-13l-107.71-62.19c-6.22-3.58-16.29-3.58-22.51,0S1544.55,1224.7,1550.77,1228.29Z"></path><path class="cls-21" d="M1680.56,1353.87a23,23,0,0,1-11.25-2.69l-165.7-95.66c-6.21-3.59-6.21-9.41,0-13a24.81,24.81,0,0,1,22.51,0l165.69,95.65c6.22,3.6,6.22,9.41,0,13A23,23,0,0,1,1680.56,1353.87Z"></path><path class="cls-12" d="M1456.46,1282.75l33.22,19.18c6.22,3.59,16.29,3.59,22.51,0s6.22-9.41,0-13L1479,1269.74c-6.22-3.58-16.3-3.58-22.51,0S1450.24,1279.15,1456.46,1282.75Z"></path><path class="cls-17" d="M1409.3,1310l93.78,54.14c6.22,3.6,16.3,3.6,22.5,0s6.22-9.4,0-13L1431.81,1297c-6.22-3.59-16.3-3.59-22.51,0S1403.08,1306.39,1409.3,1310Z"></path><path class="cls-12" d="M1647,1379.76c6.21-3.59,6.2-9.41,0-13l-93.78-54.14c-6.22-3.58-16.29-3.59-22.51,0s-6.21,9.41,0,13l93.78,54.15C1630.71,1383.35,1640.79,1383.35,1647,1379.76Z"></path><path class="cls-21" d="M1735.81,1440.22a23,23,0,0,1-11.25-2.69l-26.65-15.38-5.51-3.18-26.65-15.38c-6.21-3.59-6.21-9.41,0-13a24.89,24.89,0,0,1,22.51,0L1714.9,1406l5.52,3.19,26.64,15.38c6.22,3.59,6.22,9.4,0,13A23.05,23.05,0,0,1,1735.81,1440.22Z"></path><path class="cls-12" d="M2097.47,551.48l-4.38-2.54-21.19-12.22c-4.94-2.86-13-2.86-17.9,0s-4.94,7.47,0,10.33l21.19,12.23,4.38,2.53,21.19,12.24c4.94,2.85,13,2.85,17.9,0s4.94-7.49,0-10.34Z"></path><path class="cls-12" d="M1699.32,320.78l-4.39-2.54L1673.75,306c-4.94-2.85-13-2.85-17.9,0s-4.95,7.48,0,10.34L1677,328.58l4.38,2.53,21.19,12.23c5,2.86,13,2.85,17.89,0s5-7.48,0-10.33Z"></path><path class="cls-12" d="M1782.25,368.08l-4.39-2.53-21.19-12.23c-4.93-2.85-13-2.86-17.9,0s-4.94,7.48,0,10.34l21.2,12.22,4.38,2.54,6.76,3.9c4.94,2.86,13,2.86,17.89,0s5-7.48,0-10.33Z"></path></g><g class="cls-22"><path class="cls-17" d="M1640.68,498.09l42-24.24-10.61-3.56,6.65-3.84c7.14,2.05,12.51,3,16.16,2.78l6.81,3.94-52.07,30.06Z"></path><path class="cls-17" d="M1661.85,510.31l6.28-3.63,32.62-4.15c.51-.08,1.79-.23,3.88-.46s3.51-.43,4.27-.55,1.91-.34,3.41-.64a25.71,25.71,0,0,0,3.87-1.07,22.63,22.63,0,0,0,3.11-1.48c2-1.19,3.24-2.31,3.59-3.34s-.28-2-1.87-2.78q-5-2.62-13.12,2.07l-2.17,1.25-8.79-5.08,2.22-1.28a38.8,38.8,0,0,1,7.16-3.26,31.3,31.3,0,0,1,7.25-1.51,23.81,23.81,0,0,1,7.49.54,26.64,26.64,0,0,1,7.37,2.95q6.6,3.83,6.4,7.82t-6.71,7.77a30.64,30.64,0,0,1-4.63,2.2,32.2,32.2,0,0,1-5.18,1.47c-1.85.38-3.48.66-4.86.85s-3.22.42-5.5.67l-.58.07-.5.05-.55.06-27,3.23,15.61,9-7.19,4.16Z"></path><path class="cls-17" d="M1721.55,514.21l8.48-4.9,8.48,4.9-8.48,4.9Zm-21.25,12.27,8.44-4.88,8.47,4.9-8.44,4.88Z"></path><path class="cls-17" d="M1721.58,545.63q-7-4-6.44-8.18t7.57-8.21l1.86-1.07,8.9,5.14-1.44.84c-2.59,1.55-4.18,2.87-4.78,4s0,2.18,1.83,3.24a8.7,8.7,0,0,0,2.47,1,8.8,8.8,0,0,0,2.41.18,9.56,9.56,0,0,0,2.53-.57,25.12,25.12,0,0,0,2.62-1.09c.81-.4,1.76-.92,2.85-1.54,2.76-1.6,4.42-3.07,5-4.43s-.25-2.71-2.35-4.07l-.68-.41-.65-.39,7.46-4.32a13.72,13.72,0,0,0,1.24.67,12.24,12.24,0,0,0,6.64,1.75,16.39,16.39,0,0,0,7-2.46q3.47-2,4.14-3.59c.45-1.07-.22-2.12-2-3.15a8.29,8.29,0,0,0-2.35-.91,8.53,8.53,0,0,0-2.33-.19,10.48,10.48,0,0,0-2.43.47,24,24,0,0,0-2.43.92c-.76.37-1.61.8-2.56,1.32l-1.76,1-8.92-5.14,2.42-1.41a28.07,28.07,0,0,1,13.86-3.91,26.38,26.38,0,0,1,13.69,3.68c4.38,2.53,6.54,5.16,6.52,7.89s-2.27,5.39-6.68,7.93a24.39,24.39,0,0,1-9.29,3.17,20.81,20.81,0,0,1-9-.72,4.79,4.79,0,0,1,.86,5.49c-.88,1.91-3,3.86-6.45,5.83a34.59,34.59,0,0,1-14.89,4.82A25,25,0,0,1,1721.58,545.63Z"></path><path class="cls-17" d="M1761.06,559.57q4.51,2.61,12.18-1.82l22.61-13c.67-.39,1.25-.75,1.78-1.09l1.57-1.14,1.18-1.23.51-1.23-.31-1.24a4.47,4.47,0,0,0-1.44-1.2,7.24,7.24,0,0,0-2.5-.88,8.82,8.82,0,0,0-2.55-.07,12.21,12.21,0,0,0-2.58.63,23.24,23.24,0,0,0-2.41,1c-.68.34-1.46.75-2.3,1.23l-22.61,13.06Q1756.53,557,1761.06,559.57Zm6.53,7.84a25.44,25.44,0,0,1-14.21-3.42c-4.35-2.52-6.34-5.25-5.89-8.19s3-5.73,7.56-8.4l22.9-13.21a32.67,32.67,0,0,1,14.61-4.54,25.17,25.17,0,0,1,14.25,3.5q6.72,3.87,6,8.23t-7.8,8.44L1782.13,563A32.07,32.07,0,0,1,1767.59,567.41Z"></path></g><path class="cls-23 scale_y" d="M1139.89,0H690.78V741.66L1139.89,915.1Z"></path><g class="cls-24"><path class="cls-25 zoom_in" d="M1065.93,1102.76c-17.67,0-34.53-3.54-47.17-10.78L725,923.24c-28.16-16.12-24.74-44.48,7.64-63.33,17.84-10.38,40.75-15.72,62.44-15.72,17.67,0,34.53,3.54,47.17,10.78L1136,1023.73c28.16,16.12,24.73,44.47-7.65,63.32C1110.53,1097.43,1087.62,1102.76,1065.93,1102.76Z"></path></g><path class="cls-26" d="M1126.3,854,827.23,681.3a5.5,5.5,0,0,0-1.49-.87c-56.06-23.76-107.58,6.29-107.58,6.29s-61.74,39.5,1.47,69c0,0,212,120.68,276.74,159,.64.38,1.3.71,1.89,1.11,15.41,10.38,62.69,26.62,110.12.91C1166.39,885.27,1126.3,854,1126.3,854Z"></path><path class="cls-27" d="M907.64,782.68a16.77,16.77,0,0,1-8.23-1.89l-87.29-50.4c-4.86-2.8-4.25-7.69,1.35-10.93a22.06,22.06,0,0,1,10.72-2.68,16.75,16.75,0,0,1,8.22,1.89l87.3,50.41c4.85,2.8,4.24,7.7-1.37,10.93A21.94,21.94,0,0,1,907.64,782.68Z"></path><path class="cls-27" d="M973.84,820.91a16.75,16.75,0,0,1-8.22-1.89L933.9,800.71c-4.85-2.81-4.24-7.7,1.36-10.93A21.92,21.92,0,0,1,946,787.1a16.79,16.79,0,0,1,8.23,1.89l31.71,18.32c4.85,2.79,4.24,7.69-1.36,10.93A22,22,0,0,1,973.84,820.91Z"></path><g class="cls-20"><path d="M2229.78,596.17l-1136.22,656c-29.79,17.2-74.86,19.07-100.66,4.18L462,949.5c-8.79-5.07-14-11.48-16.1-18.36-3.41,11.87,1.59,23.77,16.1,32.15L992.9,1270.12c25.8,14.9,70.87,13,100.66-4.17l686.77-396.5L2229.78,610c19.64-11.34,27.48-26.48,23.32-39.77C2250.44,579.43,2242.81,588.64,2229.78,596.17Z"></path></g><g class="cls-22"><path class="cls-28" d="M1034.45,1326.42c-16.27,0-31.81-3.28-43.42-10L533.74,1052.14l-61.12-35.33c-9.95-5.73-15.5-13.16-16.9-21.08l-.05,0-10.5-52.45c1.75,7.51,7.31,14.5,16.81,20l530.91,306.83c11.69,6.75,27.33,10.06,43.73,10.06,19.62,0,40.3-4.74,56.54-14l.15-.08.25-.15L2229.78,610l.14-.09.06,0,.09-.05.14-.09h0c13.49-7.9,21.42-17.62,23.58-27.26l-10.65,50.72-.06-.09c-2,9.86-10,19.83-23.92,27.87l-56.13,32.4L1091,1312.29C1074.82,1321.63,1054.1,1326.42,1034.45,1326.42Z"></path></g><path class="cls-29" d="M1902.38,375l-19.05,11c-14.75,8.52-16.36,21.4-3.58,28.78l9,5.18c5.8,3.35,13.55,5,21.66,5,9.8,0,20.13-2.38,28.2-7l19-11Z"></path><g class="cls-22"><path class="cls-30" d="M1910.44,410.92a22.19,22.19,0,0,1-10.82-2.58c-6-3.45-6-9,0-12.5a24,24,0,0,1,21.64,0c6,3.45,6,9.05,0,12.5A22.14,22.14,0,0,1,1910.44,410.92Z"></path></g><path class="cls-31" d="M814.68,376.52,691.13,305.2h0l-58.86-34a100,100,0,0,0-99.69,0L350.19,376.52a25.24,25.24,0,0,0,0,43.74l182.4,105.31a99.92,99.92,0,0,0,99.69,0l57.85-33.41v0l124.55-71.93a25.26,25.26,0,0,0,0-43.75ZM808.74,410,691.13,477.92v0L626.34,515.3a88.1,88.1,0,0,1-87.81,0L356.12,410a13.38,13.38,0,0,1,0-23.18l182.4-105.3a88,88,0,0,1,87.81,0l64.25,37.08h0L808.74,386.8a13.38,13.38,0,0,1,0,23.18Z"></path></g></g></svg>